# xmcd
#
# Track frame offsets: 
#        150
#        17847
#        37374
#        50472
#        61965
#        81055
#        96612
#        111101
#        129745
#        147295
#        157720
#        175978
#        198400
#        218276
#        235909
#        260340
#
# Disc length: 3641 seconds
#
# Revision: 0
# Processed by: cddbd v1.5PL3 Copyright (c) Steve Scherf et al.
# Submitted via: ExactAudioCopy v0.95a4
#
DISCID=df0e3710
DTITLE=Carlos Zialcita - Train Through Oakland
DYEAR=1999
DGENRE=Blues
TTITLE0=Wondering and Waiting
TTITLE1=So Fine
TTITLE2=Moon Over Cliffland
TTITLE3=The Hunt Is On
TTITLE4=But On The Other Hand
TTITLE5=Fanny Mae
TTITLE6=It Should Have Been Me
TTITLE7=Chance For Love
TTITLE8=I'm Runnin'
TTITLE9=We Don't See Eye To Eye
TTITLE10=Baby, Scratch My Back
TTITLE11=Now I've Got To Pay The Price
TTITLE12=I Ain't Gonna Do That No More
TTITLE13=Train Through Oakland
TTITLE14=I'll Take Care Of You
TTITLE15=Jive n' Rhumba
EXTD=
EXTT0=
EXTT1=
EXTT2=
EXTT3=
EXTT4=
EXTT5=
EXTT6=
EXTT7=
EXTT8=
EXTT9=
EXTT10=
EXTT11=
EXTT12=
EXTT13=
EXTT14=
EXTT15=
PLAYORDER=
